<?xml version="1.0" encoding="utf-8"?>
<!-- Generator: Adobe Illustrator 26.0.1, SVG Export Plug-In . SVG Version: 6.00 Build 0)  -->
<svg version="1.1" id="图层_1" xmlns="http://www.w3.org/2000/svg" xmlns:xlink="http://www.w3.org/1999/xlink" x="0px" y="0px"
	 viewBox="0 0 123.9 120.1" style="enable-background:new 0 0 123.9 120.1;" xml:space="preserve">
<style type="text/css">
	.st0{fill:#24292F;}
	.st1{fill:#FFFFFF;}
</style>
<g>
	<path class="st0" d="M62,8.2C30.9,8.2,6,33.1,6,64.2s24.9,55.9,55.9,55.9s55.9-24.9,55.9-55.9S93,8.2,62,8.2z"/>
	<path class="st1" d="M92.2,64.1L62.1,37.5l-30,26.5V102c0,1.1,0.8,1.7,1.7,1.7h18.7V87.1c0-1.1,0.8-1.7,1.7-1.7h15.5
		c1.1,0,1.7,0.8,1.7,1.7v16.6h18.7c1.1,0,1.7-0.8,1.7-1.7L92.2,64.1z"/>
	<polygon class="st1" points="92.2,49.4 92.2,34.1 81.2,34.1 81.5,40 62.2,23 62,23.1 61.9,23 61.9,23 19.4,60.9 23.9,65.8 62,31.9 
		100.3,65.8 105,60.9 	"/>
</g>
</svg>
